<svg xmlns="http://www.w3.org/2000/svg" width="1536" height="1024" viewBox="0 0 1536 1024" role="img" aria-label="Abstract aperitivo light material study">
  <defs>
    <linearGradient id="bg" x1="0" y1="0" x2="1" y2="1">
      <stop offset="0" stop-color="#120c0d"/>
      <stop offset="0.55" stop-color="#2c1617"/>
      <stop offset="1" stop-color="#6c2826"/>
    </linearGradient>
    <radialGradient id="glow" cx="68%" cy="58%" r="48%">
      <stop offset="0" stop-color="#e3a15b" stop-opacity=".72"/>
      <stop offset=".3" stop-color="#b93d35" stop-opacity=".34"/>
      <stop offset="1" stop-color="#171111" stop-opacity="0"/>
    </radialGradient>
    <linearGradient id="glass" x1="0" y1="0" x2="1" y2="1">
      <stop offset="0" stop-color="#f6ebd5" stop-opacity=".3"/>
      <stop offset=".38" stop-color="#efc17a" stop-opacity=".08"/>
      <stop offset=".74" stop-color="#b8453b" stop-opacity=".3"/>
      <stop offset="1" stop-color="#f6ebd5" stop-opacity=".07"/>
    </linearGradient>
    <filter id="blur"><feGaussianBlur stdDeviation="18"/></filter>
    <filter id="grain"><feTurbulence type="fractalNoise" baseFrequency=".8" numOctaves="2" stitchTiles="stitch"/><feColorMatrix type="saturate" values="0"/><feComponentTransfer><feFuncA type="table" tableValues="0 .09"/></feComponentTransfer></filter>
  </defs>
  <rect width="1536" height="1024" fill="url(#bg)"/>
  <rect width="1536" height="1024" fill="url(#glow)"/>
  <path d="M1050 -110 1425 15 1270 438 887 330Z" fill="url(#glass)" stroke="#f3eadc" stroke-opacity=".22" stroke-width="2"/>
  <path d="m911 367 352 82-165 554-365-96Z" fill="#9f332d" fill-opacity=".22" stroke="#f3eadc" stroke-opacity=".16" stroke-width="2"/>
  <path d="m1170 103 208 731" stroke="#ba9451" stroke-opacity=".7" stroke-width="3"/>
  <path d="m1105 118 208 731" stroke="#f3eadc" stroke-opacity=".35" stroke-width="2"/>
  <path d="m1039 132 208 731" stroke="#cf5946" stroke-opacity=".52" stroke-width="6"/>
  <ellipse cx="1178" cy="555" rx="268" ry="268" fill="none" stroke="#f3eadc" stroke-opacity=".2" stroke-width="3"/>
  <ellipse cx="1178" cy="555" rx="218" ry="218" fill="none" stroke="#ba9451" stroke-opacity=".28" stroke-width="2"/>
  <ellipse cx="1178" cy="555" rx="155" ry="155" fill="none" stroke="#f3eadc" stroke-opacity=".14" stroke-width="1.5"/>
  <circle cx="1168" cy="534" r="102" fill="#cf5946" fill-opacity=".17" filter="url(#blur)"/>
  <path d="M850 695c94-145 204-237 347-286" fill="none" stroke="#f3eadc" stroke-opacity=".24" stroke-width="2"/>
  <path d="M882 752c90-135 210-222 357-260" fill="none" stroke="#ba9451" stroke-opacity=".38" stroke-width="3"/>
  <rect width="1536" height="1024" filter="url(#grain)" opacity=".8"/>
</svg>
